# xmcd
#
# Track frame offsets: 
#        150
#        7639
#        17332
#        27194
#        32215
#        38027
#        52580
#        59971
#        63498
#        68003
#        75447
#        88876
#        93315
#        103170
#        107953
#        110651
#        117339
#        124027
#        131887
#
# Disc length: 1900 seconds
#
# Revision: 2
# Processed by: cddbd v1.5.2PL0 Copyright (c) Steve Scherf et al.
# Submitted via: ExactAudioCopy v0.95b3
#
DISCID=f8076a13
DTITLE=John Debney - Spy Kids
DYEAR=2001
DGENRE=Soundtrack
TTITLE0=Cortez Family
TTITLE1=My Parents Are Spies
TTITLE2=Spy Wedding
TTITLE3=Spy Kids Demonstration
TTITLE4=Parents On Mission
TTITLE5=Kids Escape House
TTITLE6=Pod Chase
TTITLE7=The Safehouse
TTITLE8=The Third Brain
TTITLE9=Buddy Pack Escape
TTITLE10=Oye Como Spy
TTITLE11=Floop's Song (Cruel World)
TTITLE12=Spy Go Round
TTITLE13=Minion
TTITLE14=Speaking Around Machetes
TTITLE15=The Spy Plane
TTITLE16=Floop's Castle
TTITLE17=Final Family Theme
TTITLE18=Spy Kids (Save The World)
EXTD=
EXTT0=
EXTT1=
EXTT2=
EXTT3=
EXTT4=
EXTT5=
EXTT6=
EXTT7=
EXTT8=
EXTT9=
EXTT10=
EXTT11=
EXTT12=
EXTT13=
EXTT14=
EXTT15=
EXTT16=
EXTT17=
EXTT18=
PLAYORDER=
